<svg width="437" height="307" viewBox="0 0 437 307" fill="none" xmlns="http://www.w3.org/2000/svg">
<g clip-path="url(#clip0_684_1905)">
<path d="M427.745 0.24687L358.915 18.6962C353.699 20.0958 351.954 26.6132 355.77 30.4374L373.006 47.678L281.399 138.836L231.098 88.521L157.617 162.022L114.524 118.917L0 233.465L16.8755 250.345L114.517 152.677L157.61 195.782L231.091 122.281L281.35 172.554L389.874 64.5581L406.149 80.8373C409.965 84.6545 416.488 82.9085 417.887 77.6918L436.331 8.84243C437.73 3.62572 432.953 -1.14567 427.738 0.24687H427.745Z" fill="#00BDF2"/>
</g>
<path d="M99.15 285.988V206.646H133.727V217.813H115.214V238.873H129.515V250.137H115.214V275.018H133.923V285.988H99.15ZM151.012 257.484V247.786H175.598V257.484H151.012ZM218.312 287.066C200.485 287.066 195.098 276.487 195.098 260.618V232.212C195.098 215.854 200.485 205.667 218.312 205.667C235.356 205.667 240.548 214.874 240.548 228.588V235.248H224.875V227.902C224.875 222.319 224.679 217.225 218.41 217.225C211.945 217.225 211.456 222.515 211.456 228.392V264.439C211.456 271.197 212.729 275.507 218.41 275.507C224.581 275.507 224.875 270.218 224.875 264.439V256.7H240.548V263.263C240.548 277.075 235.65 287.066 218.312 287.066ZM259.231 285.988V206.646H279.801C295.768 206.646 305.563 211.348 305.563 227.608C305.563 237.305 303.408 243.868 295.768 247.297L306.738 285.988H290.184L281.172 250.039H275.295V285.988H259.231ZM275.295 240.44H280.095C287.833 240.44 290.38 236.62 290.38 228.882C290.38 221.535 288.323 217.519 280.879 217.519H275.295V240.44ZM324.86 285.988L326.232 206.646H343.374L353.169 256.7L363.552 206.646H380.106L381.575 285.988H369.821L368.548 232.114L358.36 285.988H348.369L337.888 231.82L336.713 285.988H324.86Z" fill="white"/>
<defs>
<clipPath id="clip0_684_1905">
<rect width="436.579" height="250.346" fill="white"/>
</clipPath>
</defs>
</svg>
